<?xml version="1.0"?>
<svg height="240" version="1.1" width="1680" xmlns:xlink="http://www.w3.org/1999/xlink" xmlns="http://www.w3.org/2000/svg"><g><g><circle cx="25.00" cy="140.00" fill="#86fff4" r="5.0" /><circle cx="65.00" cy="140.00" fill="#80f3fe" r="5.0" /><circle cx="85.00" cy="140.00" fill="#81fdfa" r="5.0" /><circle cx="95.00" cy="140.00" fill="#81fdfa" r="5.0" /><circle cx="105.00" cy="140.00" fill="#80f3fe" r="5.0" /><circle cx="145.00" cy="140.00" fill="#ad7de6" r="5.0" /><circle cx="155.00" cy="140.00" fill="#87d0fd" r="5.0" /><circle cx="165.00" cy="140.00" fill="#80f3fe" r="5.0" /><circle cx="175.00" cy="140.00" fill="#82e1ff" r="5.0" /><circle cx="225.00" cy="140.00" fill="#a096ef" r="5.0" /><circle cx="305.00" cy="140.00" fill="#ff1246" r="5.0" /><circle cx="315.00" cy="140.00" fill="#80f3fe" r="5.0" /><circle cx="355.00" cy="140.00" fill="#80f3fe" r="5.0" /><circle cx="365.00" cy="140.00" fill="#86fff4" r="5.0" /><circle cx="415.00" cy="140.00" fill="#80f3fe" r="5.0" /><circle cx="485.00" cy="140.00" fill="#ff0855" r="5.0" /><circle cx="495.00" cy="140.00" fill="#d840c7" r="5.0" /><circle cx="505.00" cy="140.00" fill="#ff1246" r="5.0" /><circle cx="535.00" cy="140.00" fill="#86fff4" r="5.0" /><circle cx="545.00" cy="140.00" fill="#81fdfa" r="5.0" /><circle cx="575.00" cy="140.00" fill="#86fff4" r="5.0" /><circle cx="585.00" cy="140.00" fill="#80f3fe" r="5.0" /><circle cx="595.00" cy="140.00" fill="#ad7de6" r="5.0" /><circle cx="605.00" cy="140.00" fill="#81fdfa" r="5.0" /><circle cx="645.00" cy="140.00" fill="#86fff4" r="5.0" /><circle cx="695.00" cy="140.00" fill="#81fdfa" r="5.0" /><circle cx="715.00" cy="140.00" fill="#a096ef" r="5.0" /><circle cx="765.00" cy="140.00" fill="#ad7de6" r="5.0" /><circle cx="795.00" cy="140.00" fill="#81fdfa" r="5.0" /><circle cx="815.00" cy="140.00" fill="#87d0fd" r="5.0" /><circle cx="825.00" cy="140.00" fill="#86fff4" r="5.0" /><circle cx="835.00" cy="140.00" fill="#ff2634" r="5.0" /><circle cx="845.00" cy="140.00" fill="#ad7de6" r="5.0" /><circle cx="855.00" cy="140.00" fill="#87d0fd" r="5.0" /><circle cx="865.00" cy="140.00" fill="#81fdfa" r="5.0" /><circle cx="905.00" cy="140.00" fill="#ff1246" r="5.0" /><circle cx="915.00" cy="140.00" fill="#86fff4" r="5.0" /><circle cx="925.00" cy="140.00" fill="#e92cb9" r="5.0" /><circle cx="945.00" cy="140.00" fill="#ad7de6" r="5.0" /><circle cx="955.00" cy="140.00" fill="#87d0fd" r="5.0" /><circle cx="965.00" cy="140.00" fill="#86fff4" r="5.0" /><circle cx="985.00" cy="140.00" fill="#82e1ff" r="5.0" /><circle cx="1055.00" cy="140.00" fill="#86fff4" r="5.0" /><circle cx="1075.00" cy="140.00" fill="#86fff4" r="5.0" /><circle cx="1095.00" cy="140.00" fill="#87d0fd" r="5.0" /><circle cx="1115.00" cy="140.00" fill="#81fdfa" r="5.0" /><circle cx="1145.00" cy="140.00" fill="#81fdfa" r="5.0" /><circle cx="1165.00" cy="140.00" fill="#81fdfa" r="5.0" /><circle cx="1185.00" cy="140.00" fill="#86fff4" r="5.0" /><circle cx="1195.00" cy="140.00" fill="#87d0fd" r="5.0" /><circle cx="1205.00" cy="140.00" fill="#81fdfa" r="5.0" /><circle cx="1245.00" cy="140.00" fill="#86fff4" r="5.0" /><circle cx="1265.00" cy="140.00" fill="#86fff4" r="5.0" /><circle cx="1285.00" cy="140.00" fill="#a096ef" r="5.0" /><circle cx="1295.00" cy="140.00" fill="#86fff4" r="5.0" /><circle cx="1305.00" cy="140.00" fill="#81fdfa" r="5.0" /><circle cx="1315.00" cy="140.00" fill="#87d0fd" r="5.0" /><circle cx="1385.00" cy="140.00" fill="#81fdfa" r="5.0" /><circle cx="1455.00" cy="140.00" fill="#86fff4" r="5.0" /><circle cx="1475.00" cy="140.00" fill="#80f3fe" r="5.0" /><circle cx="1485.00" cy="140.00" fill="#ff016a" r="5.0" /><circle cx="1495.00" cy="140.00" fill="#82e1ff" r="5.0" /><circle cx="1505.00" cy="140.00" fill="#81fdfa" r="5.0" /><circle cx="1575.00" cy="140.00" fill="#d840c7" r="5.0" /><circle cx="1585.00" cy="140.00" fill="#82e1ff" r="5.0" /><circle cx="1595.00" cy="140.00" fill="#ad7de6" r="5.0" /><circle cx="1605.00" cy="140.00" fill="#d840c7" r="5.0" /><circle cx="1615.00" cy="140.00" fill="#87d0fd" r="5.0" /><circle cx="1625.00" cy="140.00" fill="#d840c7" r="5.0" /><circle cx="1635.00" cy="140.00" fill="#86fff4" r="5.0" /><circle cx="1655.00" cy="140.00" fill="#ff4024" r="5.0" /><circle cx="65.00" cy="150.00" fill="#86fff4" r="5.0" /><circle cx="105.00" cy="150.00" fill="#87d0fd" r="5.0" /><circle cx="135.00" cy="150.00" fill="#81fdfa" r="5.0" /><circle cx="145.00" cy="150.00" fill="#a096ef" r="5.0" /><circle cx="165.00" cy="150.00" fill="#81fdfa" r="5.0" /><circle cx="175.00" cy="150.00" fill="#a096ef" r="5.0" /><circle cx="185.00" cy="150.00" fill="#d840c7" r="5.0" /><circle cx="305.00" cy="150.00" fill="#92b4f8" r="5.0" /><circle cx="315.00" cy="150.00" fill="#81fdfa" r="5.0" /><circle cx="335.00" cy="150.00" fill="#82e1ff" r="5.0" /><circle cx="365.00" cy="150.00" fill="#87d0fd" r="5.0" /><circle cx="385.00" cy="150.00" fill="#86fff4" r="5.0" /><circle cx="405.00" cy="150.00" fill="#87d0fd" r="5.0" /><circle cx="415.00" cy="150.00" fill="#81fdfa" r="5.0" /><circle cx="485.00" cy="150.00" fill="#81fdfa" r="5.0" /><circle cx="495.00" cy="150.00" fill="#92b4f8" r="5.0" /><circle cx="505.00" cy="150.00" fill="#92b4f8" r="5.0" /><circle cx="515.00" cy="150.00" fill="#82e1ff" r="5.0" /><circle cx="525.00" cy="150.00" fill="#80f3fe" r="5.0" /><circle cx="575.00" cy="150.00" fill="#a096ef" r="5.0" /><circle cx="585.00" cy="150.00" fill="#92b4f8" r="5.0" /><circle cx="595.00" cy="150.00" fill="#ff0890" r="5.0" /><circle cx="615.00" cy="150.00" fill="#86fff4" r="5.0" /><circle cx="635.00" cy="150.00" fill="#87d0fd" r="5.0" /><circle cx="645.00" cy="150.00" fill="#81fdfa" r="5.0" /><circle cx="695.00" cy="150.00" fill="#86fff4" r="5.0" /><circle cx="785.00" cy="150.00" fill="#86fff4" r="5.0" /><circle cx="795.00" cy="150.00" fill="#80f3fe" r="5.0" /><circle cx="805.00" cy="150.00" fill="#80f3fe" r="5.0" /><circle cx="815.00" cy="150.00" fill="#87d0fd" r="5.0" /><circle cx="835.00" cy="150.00" fill="#e92cb9" r="5.0" /><circle cx="845.00" cy="150.00" fill="#ff0280" r="5.0" /><circle cx="855.00" cy="150.00" fill="#e92cb9" r="5.0" /><circle cx="865.00" cy="150.00" fill="#92b4f8" r="5.0" /><circle cx="905.00" cy="150.00" fill="#a096ef" r="5.0" /><circle cx="915.00" cy="150.00" fill="#80f3fe" r="5.0" /><circle cx="925.00" cy="150.00" fill="#82e1ff" r="5.0" /><circle cx="935.00" cy="150.00" fill="#87d0fd" r="5.0" /><circle cx="945.00" cy="150.00" fill="#ff750e" r="5.0" /><circle cx="955.00" cy="150.00" fill="#87d0fd" r="5.0" /><circle cx="965.00" cy="150.00" fill="#82e1ff" r="5.0" /><circle cx="1055.00" cy="150.00" fill="#87d0fd" r="5.0" /><circle cx="1095.00" cy="150.00" fill="#a096ef" r="5.0" /><circle cx="1105.00" cy="150.00" fill="#92b4f8" r="5.0" /><circle cx="1115.00" cy="150.00" fill="#81fdfa" r="5.0" /><circle cx="1145.00" cy="150.00" fill="#ff16a5" r="5.0" /><circle cx="1155.00" cy="150.00" fill="#80f3fe" r="5.0" /><circle cx="1175.00" cy="150.00" fill="#86fff4" r="5.0" /><circle cx="1185.00" cy="150.00" fill="#80f3fe" r="5.0" /><circle cx="1195.00" cy="150.00" fill="#a096ef" r="5.0" /><circle cx="1245.00" cy="150.00" fill="#80f3fe" r="5.0" /><circle cx="1265.00" cy="150.00" fill="#86fff4" r="5.0" /><circle cx="1275.00" cy="150.00" fill="#81fdfa" r="5.0" /><circle cx="1285.00" cy="150.00" fill="#81fdfa" r="5.0" /><circle cx="1335.00" cy="150.00" fill="#81fdfa" r="5.0" /><circle cx="1365.00" cy="150.00" fill="#86fff4" r="5.0" /><circle cx="1385.00" cy="150.00" fill="#82e1ff" r="5.0" /><circle cx="1445.00" cy="150.00" fill="#86fff4" r="5.0" /><circle cx="1455.00" cy="150.00" fill="#86fff4" r="5.0" /><circle cx="1465.00" cy="150.00" fill="#81fdfa" r="5.0" /><circle cx="1475.00" cy="150.00" fill="#80f3fe" r="5.0" /><circle cx="1485.00" cy="150.00" fill="#82e1ff" r="5.0" /><circle cx="1495.00" cy="150.00" fill="#81fdfa" r="5.0" /><circle cx="1505.00" cy="150.00" fill="#80f3fe" r="5.0" /><circle cx="1555.00" cy="150.00" fill="#81fdfa" r="5.0" /><circle cx="1565.00" cy="150.00" fill="#81fdfa" r="5.0" /><circle cx="1575.00" cy="150.00" fill="#ad7de6" r="5.0" /><circle cx="1585.00" cy="150.00" fill="#ff1246" r="5.0" /><circle cx="1595.00" cy="150.00" fill="#e92cb9" r="5.0" /><circle cx="1605.00" cy="150.00" fill="#ff5619" r="5.0" /><circle cx="1615.00" cy="150.00" fill="#ad7de6" r="5.0" /><circle cx="1625.00" cy="150.00" fill="#d840c7" r="5.0" /><circle cx="1655.00" cy="150.00" fill="#ff0855" r="5.0" /><circle cx="75.00" cy="160.00" fill="#86fff4" r="5.0" /><circle cx="85.00" cy="160.00" fill="#ad7de6" r="5.0" /><circle cx="105.00" cy="160.00" fill="#80f3fe" r="5.0" /><circle cx="175.00" cy="160.00" fill="#81fdfa" r="5.0" /><circle cx="195.00" cy="160.00" fill="#86fff4" r="5.0" /><circle cx="305.00" cy="160.00" fill="#82e1ff" r="5.0" /><circle cx="315.00" cy="160.00" fill="#86fff4" r="5.0" /><circle cx="385.00" cy="160.00" fill="#86fff4" r="5.0" /><circle cx="425.00" cy="160.00" fill="#86fff4" r="5.0" /><circle cx="435.00" cy="160.00" fill="#86fff4" r="5.0" /><circle cx="485.00" cy="160.00" fill="#ff16a5" r="5.0" /><circle cx="495.00" cy="160.00" fill="#82e1ff" r="5.0" /><circle cx="505.00" cy="160.00" fill="#ffff18" r="5.0" /><circle cx="515.00" cy="160.00" fill="#82e1ff" r="5.0" /><circle cx="525.00" cy="160.00" fill="#82e1ff" r="5.0" /><circle cx="575.00" cy="160.00" fill="#ad7de6" r="5.0" /><circle cx="585.00" cy="160.00" fill="#d840c7" r="5.0" /><circle cx="595.00" cy="160.00" fill="#80f3fe" r="5.0" /><circle cx="615.00" cy="160.00" fill="#92b4f8" r="5.0" /><circle cx="635.00" cy="160.00" fill="#92b4f8" r="5.0" /><circle cx="675.00" cy="160.00" fill="#80f3fe" r="5.0" /><circle cx="695.00" cy="160.00" fill="#86fff4" r="5.0" /><circle cx="785.00" cy="160.00" fill="#81fdfa" r="5.0" /><circle cx="815.00" cy="160.00" fill="#80f3fe" r="5.0" /><circle cx="825.00" cy="160.00" fill="#ff0890" r="5.0" /><circle cx="835.00" cy="160.00" fill="#92b4f8" r="5.0" /><circle cx="845.00" cy="160.00" fill="#86fff4" r="5.0" /><circle cx="855.00" cy="160.00" fill="#80f3fe" r="5.0" /><circle cx="865.00" cy="160.00" fill="#82e1ff" r="5.0" /><circle cx="895.00" cy="160.00" fill="#ad7de6" r="5.0" /><circle cx="905.00" cy="160.00" fill="#81fdfa" r="5.0" /><circle cx="915.00" cy="160.00" fill="#86fff4" r="5.0" /><circle cx="925.00" cy="160.00" fill="#86fff4" r="5.0" /><circle cx="935.00" cy="160.00" fill="#c15ed8" r="5.0" /><circle cx="945.00" cy="160.00" fill="#86fff4" r="5.0" /><circle cx="965.00" cy="160.00" fill="#87d0fd" r="5.0" /><circle cx="1015.00" cy="160.00" fill="#86fff4" r="5.0" /><circle cx="1055.00" cy="160.00" fill="#a096ef" r="5.0" /><circle cx="1095.00" cy="160.00" fill="#a096ef" r="5.0" /><circle cx="1115.00" cy="160.00" fill="#87d0fd" r="5.0" /><circle cx="1135.00" cy="160.00" fill="#82e1ff" r="5.0" /><circle cx="1155.00" cy="160.00" fill="#86fff4" r="5.0" /><circle cx="1165.00" cy="160.00" fill="#86fff4" r="5.0" /><circle cx="1175.00" cy="160.00" fill="#82e1ff" r="5.0" /><circle cx="1185.00" cy="160.00" fill="#c15ed8" r="5.0" /><circle cx="1215.00" cy="160.00" fill="#86fff4" r="5.0" /><circle cx="1235.00" cy="160.00" fill="#82e1ff" r="5.0" /><circle cx="1245.00" cy="160.00" fill="#92b4f8" r="5.0" /><circle cx="1255.00" cy="160.00" fill="#82e1ff" r="5.0" /><circle cx="1265.00" cy="160.00" fill="#80f3fe" r="5.0" /><circle cx="1275.00" cy="160.00" fill="#81fdfa" r="5.0" /><circle cx="1285.00" cy="160.00" fill="#82e1ff" r="5.0" /><circle cx="1295.00" cy="160.00" fill="#80f3fe" r="5.0" /><circle cx="1325.00" cy="160.00" fill="#86fff4" r="5.0" /><circle cx="1335.00" cy="160.00" fill="#86fff4" r="5.0" /><circle cx="1385.00" cy="160.00" fill="#86fff4" r="5.0" /><circle cx="1465.00" cy="160.00" fill="#ff0855" r="5.0" /><circle cx="1475.00" cy="160.00" fill="#86fff4" r="5.0" /><circle cx="1485.00" cy="160.00" fill="#92b4f8" r="5.0" /><circle cx="1495.00" cy="160.00" fill="#ff016a" r="5.0" /><circle cx="1505.00" cy="160.00" fill="#c15ed8" r="5.0" /><circle cx="1565.00" cy="160.00" fill="#81fdfa" r="5.0" /><circle cx="1575.00" cy="160.00" fill="#ff0280" r="5.0" /><circle cx="1585.00" cy="160.00" fill="#92b4f8" r="5.0" /><circle cx="1605.00" cy="160.00" fill="#ff2634" r="5.0" /><circle cx="1615.00" cy="160.00" fill="#d840c7" r="5.0" /><circle cx="1625.00" cy="160.00" fill="#a096ef" r="5.0" /><circle cx="25.00" cy="170.00" fill="#81fdfa" r="5.0" /><circle cx="45.00" cy="170.00" fill="#86fff4" r="5.0" /><circle cx="65.00" cy="170.00" fill="#80f3fe" r="5.0" /><circle cx="75.00" cy="170.00" fill="#86fff4" r="5.0" /><circle cx="85.00" cy="170.00" fill="#82e1ff" r="5.0" /><circle cx="95.00" cy="170.00" fill="#82e1ff" r="5.0" /><circle cx="105.00" cy="170.00" fill="#86fff4" r="5.0" /><circle cx="145.00" cy="170.00" fill="#80f3fe" r="5.0" /><circle cx="155.00" cy="170.00" fill="#92b4f8" r="5.0" /><circle cx="165.00" cy="170.00" fill="#a096ef" r="5.0" /><circle cx="195.00" cy="170.00" fill="#86fff4" r="5.0" /><circle cx="305.00" cy="170.00" fill="#81fdfa" r="5.0" /><circle cx="315.00" cy="170.00" fill="#86fff4" r="5.0" /><circle cx="425.00" cy="170.00" fill="#80f3fe" r="5.0" /><circle cx="495.00" cy="170.00" fill="#81fdfa" r="5.0" /><circle cx="505.00" cy="170.00" fill="#d840c7" r="5.0" /><circle cx="515.00" cy="170.00" fill="#92b4f8" r="5.0" /><circle cx="525.00" cy="170.00" fill="#81fdfa" r="5.0" /><circle cx="575.00" cy="170.00" fill="#92b4f8" r="5.0" /><circle cx="585.00" cy="170.00" fill="#86fff4" r="5.0" /><circle cx="595.00" cy="170.00" fill="#c15ed8" r="5.0" /><circle cx="605.00" cy="170.00" fill="#86fff4" r="5.0" /><circle cx="615.00" cy="170.00" fill="#81fdfa" r="5.0" /><circle cx="635.00" cy="170.00" fill="#81fdfa" r="5.0" /><circle cx="685.00" cy="170.00" fill="#80f3fe" r="5.0" /><circle cx="695.00" cy="170.00" fill="#92b4f8" r="5.0" /><circle cx="785.00" cy="170.00" fill="#81fdfa" r="5.0" /><circle cx="825.00" cy="170.00" fill="#92b4f8" r="5.0" /><circle cx="835.00" cy="170.00" fill="#87d0fd" r="5.0" /><circle cx="845.00" cy="170.00" fill="#86fff4" r="5.0" /><circle cx="855.00" cy="170.00" fill="#86fff4" r="5.0" /><circle cx="865.00" cy="170.00" fill="#80f3fe" r="5.0" /><circle cx="875.00" cy="170.00" fill="#86fff4" r="5.0" /><circle cx="895.00" cy="170.00" fill="#81fdfa" r="5.0" /><circle cx="905.00" cy="170.00" fill="#86fff4" r="5.0" /><circle cx="915.00" cy="170.00" fill="#81fdfa" r="5.0" /><circle cx="935.00" cy="170.00" fill="#ff0280" r="5.0" /><circle cx="945.00" cy="170.00" fill="#86fff4" r="5.0" /><circle cx="955.00" cy="170.00" fill="#80f3fe" r="5.0" /><circle cx="965.00" cy="170.00" fill="#87d0fd" r="5.0" /><circle cx="985.00" cy="170.00" fill="#86fff4" r="5.0" /><circle cx="1055.00" cy="170.00" fill="#ff0855" r="5.0" /><circle cx="1095.00" cy="170.00" fill="#92b4f8" r="5.0" /><circle cx="1105.00" cy="170.00" fill="#c15ed8" r="5.0" /><circle cx="1115.00" cy="170.00" fill="#80f3fe" r="5.0" /><circle cx="1135.00" cy="170.00" fill="#a096ef" r="5.0" /><circle cx="1175.00" cy="170.00" fill="#a096ef" r="5.0" /><circle cx="1195.00" cy="170.00" fill="#86fff4" r="5.0" /><circle cx="1205.00" cy="170.00" fill="#86fff4" r="5.0" /><circle cx="1215.00" cy="170.00" fill="#82e1ff" r="5.0" /><circle cx="1235.00" cy="170.00" fill="#81fdfa" r="5.0" /><circle cx="1245.00" cy="170.00" fill="#81fdfa" r="5.0" /><circle cx="1255.00" cy="170.00" fill="#e92cb9" r="5.0" /><circle cx="1275.00" cy="170.00" fill="#82e1ff" r="5.0" /><circle cx="1285.00" cy="170.00" fill="#80f3fe" r="5.0" /><circle cx="1295.00" cy="170.00" fill="#81fdfa" r="5.0" /><circle cx="1335.00" cy="170.00" fill="#d840c7" r="5.0" /><circle cx="1365.00" cy="170.00" fill="#ff0890" r="5.0" /><circle cx="1375.00" cy="170.00" fill="#87d0fd" r="5.0" /><circle cx="1385.00" cy="170.00" fill="#c15ed8" r="5.0" /><circle cx="1395.00" cy="170.00" fill="#86fff4" r="5.0" /><circle cx="1465.00" cy="170.00" fill="#c15ed8" r="5.0" /><circle cx="1475.00" cy="170.00" fill="#ff1246" r="5.0" /><circle cx="1485.00" cy="170.00" fill="#80f3fe" r="5.0" /><circle cx="1505.00" cy="170.00" fill="#ad7de6" r="5.0" /><circle cx="1565.00" cy="170.00" fill="#82e1ff" r="5.0" /><circle cx="1585.00" cy="170.00" fill="#a096ef" r="5.0" /><circle cx="1595.00" cy="170.00" fill="#81fdfa" r="5.0" /><circle cx="1605.00" cy="170.00" fill="#ff16a5" r="5.0" /><circle cx="1615.00" cy="170.00" fill="#ff0890" r="5.0" /><circle cx="1625.00" cy="170.00" fill="#92b4f8" r="5.0" /><circle cx="1655.00" cy="170.00" fill="#81fdfa" r="5.0" /><circle cx="25.00" cy="180.00" fill="#86fff4" r="5.0" /><circle cx="55.00" cy="180.00" fill="#80f3fe" r="5.0" /><circle cx="65.00" cy="180.00" fill="#82e1ff" r="5.0" /><circle cx="75.00" cy="180.00" fill="#82e1ff" r="5.0" /><circle cx="95.00" cy="180.00" fill="#86fff4" r="5.0" /><circle cx="105.00" cy="180.00" fill="#81fdfa" r="5.0" /><circle cx="135.00" cy="180.00" fill="#80f3fe" r="5.0" /><circle cx="155.00" cy="180.00" fill="#86fff4" r="5.0" /><circle cx="185.00" cy="180.00" fill="#ff750e" r="5.0" /><circle cx="195.00" cy="180.00" fill="#86fff4" r="5.0" /><circle cx="295.00" cy="180.00" fill="#80f3fe" r="5.0" /><circle cx="305.00" cy="180.00" fill="#a096ef" r="5.0" /><circle cx="475.00" cy="180.00" fill="#92b4f8" r="5.0" /><circle cx="485.00" cy="180.00" fill="#ff0855" r="5.0" /><circle cx="495.00" cy="180.00" fill="#ff0855" r="5.0" /><circle cx="505.00" cy="180.00" fill="#ff0855" r="5.0" /><circle cx="515.00" cy="180.00" fill="#92b4f8" r="5.0" /><circle cx="525.00" cy="180.00" fill="#80f3fe" r="5.0" /><circle cx="535.00" cy="180.00" fill="#81fdfa" r="5.0" /><circle cx="575.00" cy="180.00" fill="#e92cb9" r="5.0" /><circle cx="585.00" cy="180.00" fill="#87d0fd" r="5.0" /><circle cx="605.00" cy="180.00" fill="#ff016a" r="5.0" /><circle cx="625.00" cy="180.00" fill="#81fdfa" r="5.0" /><circle cx="675.00" cy="180.00" fill="#82e1ff" r="5.0" /><circle cx="745.00" cy="180.00" fill="#81fdfa" r="5.0" /><circle cx="785.00" cy="180.00" fill="#92b4f8" r="5.0" /><circle cx="795.00" cy="180.00" fill="#82e1ff" r="5.0" /><circle cx="805.00" cy="180.00" fill="#81fdfa" r="5.0" /><circle cx="815.00" cy="180.00" fill="#ff4024" r="5.0" /><circle cx="825.00" cy="180.00" fill="#a096ef" r="5.0" /><circle cx="835.00" cy="180.00" fill="#ff5619" r="5.0" /><circle cx="845.00" cy="180.00" fill="#c15ed8" r="5.0" /><circle cx="855.00" cy="180.00" fill="#82e1ff" r="5.0" /><circle cx="895.00" cy="180.00" fill="#86fff4" r="5.0" /><circle cx="905.00" cy="180.00" fill="#92b4f8" r="5.0" /><circle cx="915.00" cy="180.00" fill="#92b4f8" r="5.0" /><circle cx="935.00" cy="180.00" fill="#a096ef" r="5.0" /><circle cx="945.00" cy="180.00" fill="#81fdfa" r="5.0" /><circle cx="955.00" cy="180.00" fill="#86fff4" r="5.0" /><circle cx="965.00" cy="180.00" fill="#92b4f8" r="5.0" /><circle cx="1055.00" cy="180.00" fill="#82e1ff" r="5.0" /><circle cx="1095.00" cy="180.00" fill="#92b4f8" r="5.0" /><circle cx="1105.00" cy="180.00" fill="#c15ed8" r="5.0" /><circle cx="1115.00" cy="180.00" fill="#a096ef" r="5.0" /><circle cx="1135.00" cy="180.00" fill="#a096ef" r="5.0" /><circle cx="1145.00" cy="180.00" fill="#86fff4" r="5.0" /><circle cx="1155.00" cy="180.00" fill="#a096ef" r="5.0" /><circle cx="1165.00" cy="180.00" fill="#86fff4" r="5.0" /><circle cx="1175.00" cy="180.00" fill="#a096ef" r="5.0" /><circle cx="1185.00" cy="180.00" fill="#80f3fe" r="5.0" /><circle cx="1195.00" cy="180.00" fill="#86fff4" r="5.0" /><circle cx="1225.00" cy="180.00" fill="#81fdfa" r="5.0" /><circle cx="1235.00" cy="180.00" fill="#a096ef" r="5.0" /><circle cx="1255.00" cy="180.00" fill="#d840c7" r="5.0" /><circle cx="1265.00" cy="180.00" fill="#81fdfa" r="5.0" /><circle cx="1275.00" cy="180.00" fill="#87d0fd" r="5.0" /><circle cx="1285.00" cy="180.00" fill="#ff5619" r="5.0" /><circle cx="1335.00" cy="180.00" fill="#ad7de6" r="5.0" /><circle cx="1365.00" cy="180.00" fill="#ff16a5" r="5.0" /><circle cx="1375.00" cy="180.00" fill="#92b4f8" r="5.0" /><circle cx="1385.00" cy="180.00" fill="#80f3fe" r="5.0" /><circle cx="1425.00" cy="180.00" fill="#ad7de6" r="5.0" /><circle cx="1465.00" cy="180.00" fill="#ffef05" r="5.0" /><circle cx="1475.00" cy="180.00" fill="#d840c7" r="5.0" /><circle cx="1485.00" cy="180.00" fill="#a096ef" r="5.0" /><circle cx="1495.00" cy="180.00" fill="#ff0890" r="5.0" /><circle cx="1565.00" cy="180.00" fill="#80f3fe" r="5.0" /><circle cx="1575.00" cy="180.00" fill="#d840c7" r="5.0" /><circle cx="1585.00" cy="180.00" fill="#a096ef" r="5.0" /><circle cx="1595.00" cy="180.00" fill="#ad7de6" r="5.0" /><circle cx="1605.00" cy="180.00" fill="#80f3fe" r="5.0" /><circle cx="1615.00" cy="180.00" fill="#d840c7" r="5.0" /><circle cx="1625.00" cy="180.00" fill="#ffe102" r="5.0" /><circle cx="55.00" cy="190.00" fill="#a096ef" r="5.0" /><circle cx="85.00" cy="190.00" fill="#ff16a5" r="5.0" /><circle cx="95.00" cy="190.00" fill="#ff1246" r="5.0" /><circle cx="135.00" cy="190.00" fill="#81fdfa" r="5.0" /><circle cx="145.00" cy="190.00" fill="#c15ed8" r="5.0" /><circle cx="155.00" cy="190.00" fill="#a096ef" r="5.0" /><circle cx="165.00" cy="190.00" fill="#86fff4" r="5.0" /><circle cx="175.00" cy="190.00" fill="#80f3fe" r="5.0" /><circle cx="195.00" cy="190.00" fill="#81fdfa" r="5.0" /><circle cx="305.00" cy="190.00" fill="#86fff4" r="5.0" /><circle cx="425.00" cy="190.00" fill="#81fdfa" r="5.0" /><circle cx="475.00" cy="190.00" fill="#ff2634" r="5.0" /><circle cx="485.00" cy="190.00" fill="#ad7de6" r="5.0" /><circle cx="495.00" cy="190.00" fill="#ff16a5" r="5.0" /><circle cx="505.00" cy="190.00" fill="#ff5619" r="5.0" /><circle cx="575.00" cy="190.00" fill="#87d0fd" r="5.0" /><circle cx="595.00" cy="190.00" fill="#d840c7" r="5.0" /><circle cx="605.00" cy="190.00" fill="#81fdfa" r="5.0" /><circle cx="625.00" cy="190.00" fill="#82e1ff" r="5.0" /><circle cx="635.00" cy="190.00" fill="#82e1ff" r="5.0" /><circle cx="675.00" cy="190.00" fill="#80f3fe" r="5.0" /><circle cx="685.00" cy="190.00" fill="#80f3fe" r="5.0" /><circle cx="775.00" cy="190.00" fill="#87d0fd" r="5.0" /><circle cx="785.00" cy="190.00" fill="#86fff4" r="5.0" /><circle cx="805.00" cy="190.00" fill="#92b4f8" r="5.0" /><circle cx="825.00" cy="190.00" fill="#ff5619" r="5.0" /><circle cx="835.00" cy="190.00" fill="#87d0fd" r="5.0" /><circle cx="845.00" cy="190.00" fill="#86fff4" r="5.0" /><circle cx="885.00" cy="190.00" fill="#86fff4" r="5.0" /><circle cx="905.00" cy="190.00" fill="#86fff4" r="5.0" /><circle cx="915.00" cy="190.00" fill="#92b4f8" r="5.0" /><circle cx="935.00" cy="190.00" fill="#81fdfa" r="5.0" /><circle cx="945.00" cy="190.00" fill="#a096ef" r="5.0" /><circle cx="955.00" cy="190.00" fill="#a096ef" r="5.0" /><circle cx="965.00" cy="190.00" fill="#80f3fe" r="5.0" /><circle cx="975.00" cy="190.00" fill="#80f3fe" r="5.0" /><circle cx="1015.00" cy="190.00" fill="#81fdfa" r="5.0" /><circle cx="1095.00" cy="190.00" fill="#a096ef" r="5.0" /><circle cx="1105.00" cy="190.00" fill="#ad7de6" r="5.0" /><circle cx="1115.00" cy="190.00" fill="#ad7de6" r="5.0" /><circle cx="1135.00" cy="190.00" fill="#ad7de6" r="5.0" /><circle cx="1155.00" cy="190.00" fill="#80f3fe" r="5.0" /><circle cx="1175.00" cy="190.00" fill="#ff0280" r="5.0" /><circle cx="1225.00" cy="190.00" fill="#80f3fe" r="5.0" /><circle cx="1245.00" cy="190.00" fill="#80f3fe" r="5.0" /><circle cx="1255.00" cy="190.00" fill="#82e1ff" r="5.0" /><circle cx="1275.00" cy="190.00" fill="#86fff4" r="5.0" /><circle cx="1285.00" cy="190.00" fill="#ff016a" r="5.0" /><circle cx="1305.00" cy="190.00" fill="#86fff4" r="5.0" /><circle cx="1365.00" cy="190.00" fill="#81fdfa" r="5.0" /><circle cx="1375.00" cy="190.00" fill="#81fdfa" r="5.0" /><circle cx="1385.00" cy="190.00" fill="#80f3fe" r="5.0" /><circle cx="1465.00" cy="190.00" fill="#d840c7" r="5.0" /><circle cx="1475.00" cy="190.00" fill="#82e1ff" r="5.0" /><circle cx="1485.00" cy="190.00" fill="#80f3fe" r="5.0" /><circle cx="1495.00" cy="190.00" fill="#a096ef" r="5.0" /><circle cx="1505.00" cy="190.00" fill="#86fff4" r="5.0" /><circle cx="1565.00" cy="190.00" fill="#87d0fd" r="5.0" /><circle cx="1575.00" cy="190.00" fill="#d840c7" r="5.0" /><circle cx="1585.00" cy="190.00" fill="#80f3fe" r="5.0" /><circle cx="1595.00" cy="190.00" fill="#81fdfa" r="5.0" /><circle cx="1605.00" cy="190.00" fill="#ff4024" r="5.0" /><circle cx="1615.00" cy="190.00" fill="#ff0890" r="5.0" /><circle cx="1625.00" cy="190.00" fill="#81fdfa" r="5.0" /><circle cx="15.00" cy="200.00" fill="#86fff4" r="5.0" /><circle cx="55.00" cy="200.00" fill="#d840c7" r="5.0" /><circle cx="75.00" cy="200.00" fill="#ff1246" r="5.0" /><circle cx="85.00" cy="200.00" fill="#87d0fd" r="5.0" /><circle cx="95.00" cy="200.00" fill="#d840c7" r="5.0" /><circle cx="125.00" cy="200.00" fill="#80f3fe" r="5.0" /><circle cx="135.00" cy="200.00" fill="#87d0fd" r="5.0" /><circle cx="145.00" cy="200.00" fill="#80f3fe" r="5.0" /><circle cx="185.00" cy="200.00" fill="#92b4f8" r="5.0" /><circle cx="295.00" cy="200.00" fill="#80f3fe" r="5.0" /><circle cx="415.00" cy="200.00" fill="#82e1ff" r="5.0" /><circle cx="475.00" cy="200.00" fill="#ff16a5" r="5.0" /><circle cx="485.00" cy="200.00" fill="#ff9606" r="5.0" /><circle cx="495.00" cy="200.00" fill="#ff016a" r="5.0" /><circle cx="505.00" cy="200.00" fill="#ad7de6" r="5.0" /><circle cx="545.00" cy="200.00" fill="#81fdfa" r="5.0" /><circle cx="555.00" cy="200.00" fill="#81fdfa" r="5.0" /><circle cx="575.00" cy="200.00" fill="#86fff4" r="5.0" /><circle cx="635.00" cy="200.00" fill="#86fff4" r="5.0" /><circle cx="685.00" cy="200.00" fill="#86fff4" r="5.0" /><circle cx="705.00" cy="200.00" fill="#86fff4" r="5.0" /><circle cx="795.00" cy="200.00" fill="#e92cb9" r="5.0" /><circle cx="805.00" cy="200.00" fill="#80f3fe" r="5.0" /><circle cx="825.00" cy="200.00" fill="#ad7de6" r="5.0" /><circle cx="835.00" cy="200.00" fill="#82e1ff" r="5.0" /><circle cx="845.00" cy="200.00" fill="#80f3fe" r="5.0" /><circle cx="895.00" cy="200.00" fill="#92b4f8" r="5.0" /><circle cx="905.00" cy="200.00" fill="#80f3fe" r="5.0" /><circle cx="915.00" cy="200.00" fill="#ff4024" r="5.0" /><circle cx="935.00" cy="200.00" fill="#82e1ff" r="5.0" /><circle cx="965.00" cy="200.00" fill="#86fff4" r="5.0" /><circle cx="1015.00" cy="200.00" fill="#86fff4" r="5.0" /><circle cx="1045.00" cy="200.00" fill="#87d0fd" r="5.0" /><circle cx="1055.00" cy="200.00" fill="#86fff4" r="5.0" /><circle cx="1075.00" cy="200.00" fill="#87d0fd" r="5.0" /><circle cx="1085.00" cy="200.00" fill="#82e1ff" r="5.0" /><circle cx="1095.00" cy="200.00" fill="#86fff4" r="5.0" /><circle cx="1105.00" cy="200.00" fill="#80f3fe" r="5.0" /><circle cx="1115.00" cy="200.00" fill="#c15ed8" r="5.0" /><circle cx="1145.00" cy="200.00" fill="#80f3fe" r="5.0" /><circle cx="1155.00" cy="200.00" fill="#92b4f8" r="5.0" /><circle cx="1175.00" cy="200.00" fill="#87d0fd" r="5.0" /><circle cx="1195.00" cy="200.00" fill="#87d0fd" r="5.0" /><circle cx="1225.00" cy="200.00" fill="#86fff4" r="5.0" /><circle cx="1295.00" cy="200.00" fill="#82e1ff" r="5.0" /><circle cx="1335.00" cy="200.00" fill="#ff016a" r="5.0" /><circle cx="1365.00" cy="200.00" fill="#87d0fd" r="5.0" /><circle cx="1375.00" cy="200.00" fill="#ff0280" r="5.0" /><circle cx="1415.00" cy="200.00" fill="#82e1ff" r="5.0" /><circle cx="1465.00" cy="200.00" fill="#d840c7" r="5.0" /><circle cx="1475.00" cy="200.00" fill="#e92cb9" r="5.0" /><circle cx="1485.00" cy="200.00" fill="#81fdfa" r="5.0" /><circle cx="1495.00" cy="200.00" fill="#c15ed8" r="5.0" /><circle cx="1555.00" cy="200.00" fill="#81fdfa" r="5.0" /><circle cx="1565.00" cy="200.00" fill="#87d0fd" r="5.0" /><circle cx="1575.00" cy="200.00" fill="#c15ed8" r="5.0" /><circle cx="1585.00" cy="200.00" fill="#87d0fd" r="5.0" /><circle cx="1595.00" cy="200.00" fill="#e92cb9" r="5.0" /><circle cx="1605.00" cy="200.00" fill="#c15ed8" r="5.0" /><circle cx="1615.00" cy="200.00" fill="#87d0fd" r="5.0" /><circle cx="1625.00" cy="200.00" fill="#92b4f8" r="5.0" /><circle cx="1645.00" cy="200.00" fill="#86fff4" r="5.0" /></g><g stroke="#141010"><line x1="10.00" x2="10.00" y1="105.00" y2="115.00" /><line x1="50.00" x2="50.00" y1="105.00" y2="115.00" /><line x1="90.00" x2="90.00" y1="105.00" y2="115.00" /><line x1="130.00" x2="130.00" y1="105.00" y2="115.00" /><line x1="170.00" x2="170.00" y1="105.00" y2="115.00" /><line x1="210.00" x2="210.00" y1="105.00" y2="115.00" /><line x1="250.00" x2="250.00" y1="105.00" y2="115.00" /><line x1="290.00" x2="290.00" y1="105.00" y2="115.00" /><line x1="330.00" x2="330.00" y1="105.00" y2="115.00" /><line x1="370.00" x2="370.00" y1="105.00" y2="115.00" /><line x1="410.00" x2="410.00" y1="105.00" y2="115.00" /><line x1="450.00" x2="450.00" y1="105.00" y2="115.00" /><line x1="490.00" x2="490.00" y1="105.00" y2="115.00" /><line x1="530.00" x2="530.00" y1="105.00" y2="115.00" /><line x1="570.00" x2="570.00" y1="105.00" y2="115.00" /><line x1="610.00" x2="610.00" y1="105.00" y2="115.00" /><line x1="650.00" x2="650.00" y1="105.00" y2="115.00" /><line x1="690.00" x2="690.00" y1="105.00" y2="115.00" /><line x1="730.00" x2="730.00" y1="105.00" y2="115.00" /><line x1="770.00" x2="770.00" y1="105.00" y2="115.00" /><line x1="810.00" x2="810.00" y1="105.00" y2="115.00" /><line x1="850.00" x2="850.00" y1="105.00" y2="115.00" /><line x1="890.00" x2="890.00" y1="105.00" y2="115.00" /><line x1="930.00" x2="930.00" y1="105.00" y2="115.00" /><line x1="970.00" x2="970.00" y1="105.00" y2="115.00" /><line x1="1010.00" x2="1010.00" y1="105.00" y2="115.00" /><line x1="1050.00" x2="1050.00" y1="105.00" y2="115.00" /><line x1="1090.00" x2="1090.00" y1="105.00" y2="115.00" /><line x1="1130.00" x2="1130.00" y1="105.00" y2="115.00" /><line x1="1170.00" x2="1170.00" y1="105.00" y2="115.00" /><line x1="1210.00" x2="1210.00" y1="105.00" y2="115.00" /><line x1="1250.00" x2="1250.00" y1="105.00" y2="115.00" /><line x1="1290.00" x2="1290.00" y1="105.00" y2="115.00" /><line x1="1330.00" x2="1330.00" y1="105.00" y2="115.00" /><line x1="1370.00" x2="1370.00" y1="105.00" y2="115.00" /><line x1="1410.00" x2="1410.00" y1="105.00" y2="115.00" /><line x1="1450.00" x2="1450.00" y1="105.00" y2="115.00" /><line x1="1490.00" x2="1490.00" y1="105.00" y2="115.00" /><line x1="1530.00" x2="1530.00" y1="105.00" y2="115.00" /><line x1="1570.00" x2="1570.00" y1="105.00" y2="115.00" /><line x1="1610.00" x2="1610.00" y1="105.00" y2="115.00" /><line x1="1650.00" x2="1650.00" y1="105.00" y2="115.00" /><line x1="20.00" x2="20.00" y1="105.00" y2="110.00" /><line x1="30.00" x2="30.00" y1="105.00" y2="110.00" /><line x1="40.00" x2="40.00" y1="105.00" y2="110.00" /><line x1="60.00" x2="60.00" y1="105.00" y2="110.00" /><line x1="70.00" x2="70.00" y1="105.00" y2="110.00" /><line x1="80.00" x2="80.00" y1="105.00" y2="110.00" /><line x1="100.00" x2="100.00" y1="105.00" y2="110.00" /><line x1="110.00" x2="110.00" y1="105.00" y2="110.00" /><line x1="120.00" x2="120.00" y1="105.00" y2="110.00" /><line x1="140.00" x2="140.00" y1="105.00" y2="110.00" /><line x1="150.00" x2="150.00" y1="105.00" y2="110.00" /><line x1="160.00" x2="160.00" y1="105.00" y2="110.00" /><line x1="180.00" x2="180.00" y1="105.00" y2="110.00" /><line x1="190.00" x2="190.00" y1="105.00" y2="110.00" /><line x1="200.00" x2="200.00" y1="105.00" y2="110.00" /><line x1="220.00" x2="220.00" y1="105.00" y2="110.00" /><line x1="230.00" x2="230.00" y1="105.00" y2="110.00" /><line x1="240.00" x2="240.00" y1="105.00" y2="110.00" /><line x1="260.00" x2="260.00" y1="105.00" y2="110.00" /><line x1="270.00" x2="270.00" y1="105.00" y2="110.00" /><line x1="280.00" x2="280.00" y1="105.00" y2="110.00" /><line x1="300.00" x2="300.00" y1="105.00" y2="110.00" /><line x1="310.00" x2="310.00" y1="105.00" y2="110.00" /><line x1="320.00" x2="320.00" y1="105.00" y2="110.00" /><line x1="340.00" x2="340.00" y1="105.00" y2="110.00" /><line x1="350.00" x2="350.00" y1="105.00" y2="110.00" /><line x1="360.00" x2="360.00" y1="105.00" y2="110.00" /><line x1="380.00" x2="380.00" y1="105.00" y2="110.00" /><line x1="390.00" x2="390.00" y1="105.00" y2="110.00" /><line x1="400.00" x2="400.00" y1="105.00" y2="110.00" /><line x1="420.00" x2="420.00" y1="105.00" y2="110.00" /><line x1="430.00" x2="430.00" y1="105.00" y2="110.00" /><line x1="440.00" x2="440.00" y1="105.00" y2="110.00" /><line x1="460.00" x2="460.00" y1="105.00" y2="110.00" /><line x1="470.00" x2="470.00" y1="105.00" y2="110.00" /><line x1="480.00" x2="480.00" y1="105.00" y2="110.00" /><line x1="500.00" x2="500.00" y1="105.00" y2="110.00" /><line x1="510.00" x2="510.00" y1="105.00" y2="110.00" /><line x1="520.00" x2="520.00" y1="105.00" y2="110.00" /><line x1="540.00" x2="540.00" y1="105.00" y2="110.00" /><line x1="550.00" x2="550.00" y1="105.00" y2="110.00" /><line x1="560.00" x2="560.00" y1="105.00" y2="110.00" /><line x1="580.00" x2="580.00" y1="105.00" y2="110.00" /><line x1="590.00" x2="590.00" y1="105.00" y2="110.00" /><line x1="600.00" x2="600.00" y1="105.00" y2="110.00" /><line x1="620.00" x2="620.00" y1="105.00" y2="110.00" /><line x1="630.00" x2="630.00" y1="105.00" y2="110.00" /><line x1="640.00" x2="640.00" y1="105.00" y2="110.00" /><line x1="660.00" x2="660.00" y1="105.00" y2="110.00" /><line x1="670.00" x2="670.00" y1="105.00" y2="110.00" /><line x1="680.00" x2="680.00" y1="105.00" y2="110.00" /><line x1="700.00" x2="700.00" y1="105.00" y2="110.00" /><line x1="710.00" x2="710.00" y1="105.00" y2="110.00" /><line x1="720.00" x2="720.00" y1="105.00" y2="110.00" /><line x1="740.00" x2="740.00" y1="105.00" y2="110.00" /><line x1="750.00" x2="750.00" y1="105.00" y2="110.00" /><line x1="760.00" x2="760.00" y1="105.00" y2="110.00" /><line x1="780.00" x2="780.00" y1="105.00" y2="110.00" /><line x1="790.00" x2="790.00" y1="105.00" y2="110.00" /><line x1="800.00" x2="800.00" y1="105.00" y2="110.00" /><line x1="820.00" x2="820.00" y1="105.00" y2="110.00" /><line x1="830.00" x2="830.00" y1="105.00" y2="110.00" /><line x1="840.00" x2="840.00" y1="105.00" y2="110.00" /><line x1="860.00" x2="860.00" y1="105.00" y2="110.00" /><line x1="870.00" x2="870.00" y1="105.00" y2="110.00" /><line x1="880.00" x2="880.00" y1="105.00" y2="110.00" /><line x1="900.00" x2="900.00" y1="105.00" y2="110.00" /><line x1="910.00" x2="910.00" y1="105.00" y2="110.00" /><line x1="920.00" x2="920.00" y1="105.00" y2="110.00" /><line x1="940.00" x2="940.00" y1="105.00" y2="110.00" /><line x1="950.00" x2="950.00" y1="105.00" y2="110.00" /><line x1="960.00" x2="960.00" y1="105.00" y2="110.00" /><line x1="980.00" x2="980.00" y1="105.00" y2="110.00" /><line x1="990.00" x2="990.00" y1="105.00" y2="110.00" /><line x1="1000.00" x2="1000.00" y1="105.00" y2="110.00" /><line x1="1020.00" x2="1020.00" y1="105.00" y2="110.00" /><line x1="1030.00" x2="1030.00" y1="105.00" y2="110.00" /><line x1="1040.00" x2="1040.00" y1="105.00" y2="110.00" /><line x1="1060.00" x2="1060.00" y1="105.00" y2="110.00" /><line x1="1070.00" x2="1070.00" y1="105.00" y2="110.00" /><line x1="1080.00" x2="1080.00" y1="105.00" y2="110.00" /><line x1="1100.00" x2="1100.00" y1="105.00" y2="110.00" /><line x1="1110.00" x2="1110.00" y1="105.00" y2="110.00" /><line x1="1120.00" x2="1120.00" y1="105.00" y2="110.00" /><line x1="1140.00" x2="1140.00" y1="105.00" y2="110.00" /><line x1="1150.00" x2="1150.00" y1="105.00" y2="110.00" /><line x1="1160.00" x2="1160.00" y1="105.00" y2="110.00" /><line x1="1180.00" x2="1180.00" y1="105.00" y2="110.00" /><line x1="1190.00" x2="1190.00" y1="105.00" y2="110.00" /><line x1="1200.00" x2="1200.00" y1="105.00" y2="110.00" /><line x1="1220.00" x2="1220.00" y1="105.00" y2="110.00" /><line x1="1230.00" x2="1230.00" y1="105.00" y2="110.00" /><line x1="1240.00" x2="1240.00" y1="105.00" y2="110.00" /><line x1="1260.00" x2="1260.00" y1="105.00" y2="110.00" /><line x1="1270.00" x2="1270.00" y1="105.00" y2="110.00" /><line x1="1280.00" x2="1280.00" y1="105.00" y2="110.00" /><line x1="1300.00" x2="1300.00" y1="105.00" y2="110.00" /><line x1="1310.00" x2="1310.00" y1="105.00" y2="110.00" /><line x1="1320.00" x2="1320.00" y1="105.00" y2="110.00" /><line x1="1340.00" x2="1340.00" y1="105.00" y2="110.00" /><line x1="1350.00" x2="1350.00" y1="105.00" y2="110.00" /><line x1="1360.00" x2="1360.00" y1="105.00" y2="110.00" /><line x1="1380.00" x2="1380.00" y1="105.00" y2="110.00" /><line x1="1390.00" x2="1390.00" y1="105.00" y2="110.00" /><line x1="1400.00" x2="1400.00" y1="105.00" y2="110.00" /><line x1="1420.00" x2="1420.00" y1="105.00" y2="110.00" /><line x1="1430.00" x2="1430.00" y1="105.00" y2="110.00" /><line x1="1440.00" x2="1440.00" y1="105.00" y2="110.00" /><line x1="1460.00" x2="1460.00" y1="105.00" y2="110.00" /><line x1="1470.00" x2="1470.00" y1="105.00" y2="110.00" /><line x1="1480.00" x2="1480.00" y1="105.00" y2="110.00" /><line x1="1500.00" x2="1500.00" y1="105.00" y2="110.00" /><line x1="1510.00" x2="1510.00" y1="105.00" y2="110.00" /><line x1="1520.00" x2="1520.00" y1="105.00" y2="110.00" /><line x1="1540.00" x2="1540.00" y1="105.00" y2="110.00" /><line x1="1550.00" x2="1550.00" y1="105.00" y2="110.00" /><line x1="1560.00" x2="1560.00" y1="105.00" y2="110.00" /><line x1="1580.00" x2="1580.00" y1="105.00" y2="110.00" /><line x1="1590.00" x2="1590.00" y1="105.00" y2="110.00" /><line x1="1600.00" x2="1600.00" y1="105.00" y2="110.00" /><line x1="1620.00" x2="1620.00" y1="105.00" y2="110.00" /><line x1="1630.00" x2="1630.00" y1="105.00" y2="110.00" /><line x1="1640.00" x2="1640.00" y1="105.00" y2="110.00" /><line x1="1660.00" x2="1660.00" y1="105.00" y2="110.00" /><g fill="#141010" font-family="&apos;Lekton&apos;,sans-serif" font-size="12px" font-weight="bold" stroke="none" text-anchor="middle"><text x="10.00" y="127.00">Aug</text><text x="90.00" y="127.00">Oct</text><g><rect fill="#141010" height="14" width="36" x="232.00" y="116.00" /><text fill="#f8f4f4" x="250.00" y="127.00">2013</text></g><text x="370.00" y="127.00">Apr</text><text x="490.00" y="127.00">Jul</text><text x="610.00" y="127.00">Oct</text><g><rect fill="#141010" height="14" width="36" x="752.00" y="116.00" /><text fill="#f8f4f4" x="770.00" y="127.00">2014</text></g><text x="890.00" y="127.00">Apr</text><text x="1010.00" y="127.00">Jul</text><text x="1130.00" y="127.00">Oct</text><g><rect fill="#141010" height="14" width="36" x="1272.00" y="116.00" /><text fill="#f8f4f4" x="1290.00" y="127.00">2015</text></g><text x="1410.00" y="127.00">Apr</text><text x="1530.00" y="127.00">Jul</text><text x="1650.00" y="127.00">Oct</text></g><line x1="10.00" x2="1660.00" y1="105.00" y2="105.00" /></g></g><g><polygon fill="#141010" points="15.00,99.05 25.00,96.19 35.00,100.00 45.00,99.05 55.00,80.95 65.00,89.52 75.00,78.10 85.00,70.48 95.00,67.62 105.00,86.67 115.00,100.00 125.00,97.14 135.00,88.57 145.00,71.43 155.00,81.90 165.00,87.62 175.00,84.76 185.00,64.76 195.00,95.24 205.00,100.00 215.00,100.00 225.00,93.33 235.00,100.00 245.00,100.00 255.00,100.00 265.00,100.00 275.00,100.00 285.00,100.00 295.00,94.29 305.00,64.76 315.00,93.33 325.00,100.00 335.00,96.19 345.00,100.00 355.00,97.14 365.00,94.29 375.00,100.00 385.00,98.10 395.00,100.00 405.00,95.24 415.00,91.43 425.00,94.29 435.00,99.05 445.00,100.00 455.00,100.00 465.00,100.00 475.00,65.71 485.00,27.62 495.00,38.10 505.00,0.00 515.00,80.95 525.00,88.57 535.00,97.14 545.00,96.19 555.00,98.10 565.00,100.00 575.00,62.86 585.00,76.19 595.00,59.05 605.00,80.95 615.00,91.43 625.00,94.29 635.00,82.86 645.00,97.14 655.00,100.00 665.00,100.00 675.00,90.48 685.00,93.33 695.00,90.48 705.00,99.05 715.00,93.33 725.00,100.00 735.00,100.00 745.00,98.10 755.00,100.00 765.00,92.38 775.00,95.24 785.00,88.57 795.00,80.95 805.00,86.67 815.00,69.52 825.00,47.62 835.00,34.29 845.00,64.76 855.00,77.14 865.00,85.71 875.00,99.05 885.00,99.05 895.00,83.81 905.00,64.76 915.00,63.81 925.00,84.76 935.00,60.95 945.00,61.90 955.00,80.00 965.00,76.19 975.00,97.14 985.00,95.24 995.00,100.00 1005.00,100.00 1015.00,96.19 1025.00,100.00 1035.00,100.00 1045.00,95.24 1055.00,67.62 1065.00,100.00 1075.00,94.29 1085.00,96.19 1095.00,62.86 1105.00,66.67 1115.00,65.71 1125.00,100.00 1135.00,75.24 1145.00,82.86 1155.00,80.95 1165.00,96.19 1175.00,63.81 1185.00,84.76 1195.00,81.90 1205.00,97.14 1215.00,95.24 1225.00,94.29 1235.00,87.62 1245.00,85.71 1255.00,72.38 1265.00,93.33 1275.00,86.67 1285.00,51.43 1295.00,90.48 1305.00,97.14 1315.00,95.24 1325.00,99.05 1335.00,65.71 1345.00,100.00 1355.00,100.00 1365.00,68.57 1375.00,74.29 1385.00,79.05 1395.00,99.05 1405.00,100.00 1415.00,96.19 1425.00,92.38 1435.00,100.00 1445.00,99.05 1455.00,98.10 1465.00,30.48 1475.00,53.33 1485.00,61.90 1495.00,52.38 1505.00,78.10 1515.00,100.00 1525.00,100.00 1535.00,100.00 1545.00,100.00 1555.00,96.19 1565.00,80.00 1575.00,41.90 1585.00,53.33 1595.00,60.00 1605.00,13.33 1615.00,39.05 1625.00,37.14 1635.00,99.05 1645.00,99.05 1655.00,64.76 1655.00,100.00 15.00,100.00" /></g><g fill="#141010" font-family="&apos;Lekton&apos;,sans-serif" font-size="12px" font-weight="bold"><rect fill="#86fff4" height="12" width="5" x="10.00" y="214.00" /><rect fill="#86fff4" height="12" width="5" x="12.04" y="214.00" /><rect fill="#83fef8" height="12" width="5" x="14.08" y="214.00" /><rect fill="#80f6fd" height="12" width="5" x="16.12" y="214.00" /><rect fill="#80f6fd" height="12" width="5" x="18.16" y="214.00" /><rect fill="#81e6ff" height="12" width="5" x="20.20" y="214.00" /><rect fill="#84dcfe" height="12" width="5" x="22.24" y="214.00" /><rect fill="#87d0fd" height="12" width="5" x="24.29" y="214.00" /><rect fill="#87d0fd" height="12" width="5" x="26.33" y="214.00" /><rect fill="#92b4f8" height="12" width="5" x="28.37" y="214.00" /><rect fill="#99a5f4" height="12" width="5" x="30.41" y="214.00" /><rect fill="#a096ef" height="12" width="5" x="32.45" y="214.00" /><rect fill="#a986e9" height="12" width="5" x="34.49" y="214.00" /><rect fill="#b275e3" height="12" width="5" x="36.53" y="214.00" /><rect fill="#bc65db" height="12" width="5" x="38.57" y="214.00" /><rect fill="#c756d4" height="12" width="5" x="40.61" y="214.00" /><rect fill="#c756d4" height="12" width="5" x="42.65" y="214.00" /><rect fill="#dd39c2" height="12" width="5" x="44.69" y="214.00" /><rect fill="#e92cb9" height="12" width="5" x="46.73" y="214.00" /><rect fill="#f520af" height="12" width="5" x="48.78" y="214.00" /><rect fill="#ff16a5" height="12" width="5" x="50.82" y="214.00" /><rect fill="#ff0e9a" height="12" width="5" x="52.86" y="214.00" /><rect fill="#ff0890" height="12" width="5" x="54.90" y="214.00" /><rect fill="#ff0385" height="12" width="5" x="56.94" y="214.00" /><rect fill="#ff017a" height="12" width="5" x="58.98" y="214.00" /><rect fill="#ff006f" height="12" width="5" x="61.02" y="214.00" /><rect fill="#ff0265" height="12" width="5" x="63.06" y="214.00" /><rect fill="#ff0265" height="12" width="5" x="65.10" y="214.00" /><rect fill="#ff0b50" height="12" width="5" x="67.14" y="214.00" /><rect fill="#ff1246" height="12" width="5" x="69.18" y="214.00" /><rect fill="#ff1b3d" height="12" width="5" x="71.22" y="214.00" /><rect fill="#ff2634" height="12" width="5" x="73.27" y="214.00" /><rect fill="#ff2634" height="12" width="5" x="75.31" y="214.00" /><rect fill="#ff4024" height="12" width="5" x="77.35" y="214.00" /><rect fill="#ff4e1d" height="12" width="5" x="79.39" y="214.00" /><rect fill="#ff5e16" height="12" width="5" x="81.43" y="214.00" /><rect fill="#ff6d10" height="12" width="5" x="83.47" y="214.00" /><rect fill="#ff7d0c" height="12" width="5" x="85.51" y="214.00" /><rect fill="#ff8e08" height="12" width="5" x="87.55" y="214.00" /><rect fill="#ff9e04" height="12" width="5" x="89.59" y="214.00" /><rect fill="#ffad02" height="12" width="5" x="91.63" y="214.00" /><rect fill="#ffbc01" height="12" width="5" x="93.67" y="214.00" /><rect fill="#ffc900" height="12" width="5" x="95.71" y="214.00" /><rect fill="#ffd600" height="12" width="5" x="97.76" y="214.00" /><rect fill="#ffe102" height="12" width="5" x="99.80" y="214.00" /><rect fill="#ffeb04" height="12" width="5" x="101.84" y="214.00" /><rect fill="#fff307" height="12" width="5" x="103.88" y="214.00" /><rect fill="#fff90b" height="12" width="5" x="105.92" y="214.00" /><rect fill="#fffd10" height="12" width="5" x="107.96" y="214.00" /><rect fill="#ffff15" height="12" width="5" x="110.00" y="214.00" /><text x="10.00" y="240.00">1</text><text x="122.00" y="225.00">Commits / day</text><text text-anchor="end" x="115.00" y="240.00">28</text></g></svg>